<svg width="30" height="28" viewBox="0 0 30 28" fill="none" xmlns="http://www.w3.org/2000/svg">
<path d="M1.11844 26C0.797812 26 0.53125 25.8922 0.31875 25.6766C0.10625 25.4609 0 25.1938 0 24.875V3.125C0 2.80625 0.108438 2.53906 0.325313 2.32344C0.542213 2.10781 0.810963 2 1.13156 2C1.45219 2 1.71875 2.10781 1.93125 2.32344C2.14375 2.53906 2.25 2.80625 2.25 3.125V24.875C2.25 25.1938 2.14156 25.4609 1.92469 25.6766C1.70779 25.8922 1.43904 26 1.11844 26ZM28.8684 26C28.5478 26 28.2813 25.8922 28.0688 25.6766C27.8563 25.4609 27.75 25.1938 27.75 24.875V3.125C27.75 2.80625 27.8584 2.53906 28.0753 2.32344C28.2922 2.10781 28.561 2 28.8816 2C29.2022 2 29.4688 2.10781 29.6813 2.32344C29.8938 2.53906 30 2.80625 30 3.125V24.875C30 25.1938 29.8916 25.4609 29.6747 25.6766C29.4578 25.8922 29.189 26 28.8684 26ZM9.7125 21.35C9.43683 21.35 9.2179 21.2313 9.05573 20.9938C8.89357 20.7563 8.8625 20.5 8.9625 20.225L13.875 6.9875C13.925 6.8125 14.025 6.675 14.175 6.575C14.325 6.475 14.4888 6.425 14.6664 6.425H15.2961C15.4737 6.425 15.6375 6.475 15.7875 6.575C15.9375 6.675 16.0375 6.8125 16.0875 6.9875L21.0375 20.225C21.1375 20.5 21.1125 20.7563 20.9625 20.9938C20.8125 21.2313 20.583 21.35 20.2738 21.35C20.0739 21.35 19.9011 21.3 19.7557 21.2C19.6102 21.1 19.5125 20.9625 19.4625 20.7875L18.225 17.1875H11.775L10.5 20.825C10.4457 20.9917 10.3461 21.1208 10.2013 21.2125C10.0564 21.3042 9.89353 21.35 9.7125 21.35ZM12.3375 15.6875H17.6625L15.0375 8.3375H14.9625L12.3375 15.6875Z" fill="black"/>
</svg>
