<svg width="31" height="28" viewBox="0 0 31 28" fill="none" xmlns="http://www.w3.org/2000/svg">
<path d="M11.1311 5.65285H29.9631C30.4553 5.65285 30.8538 5.26613 30.8538 4.76222C30.8538 4.27003 30.4553 3.88332 29.9631 3.88332H11.1311C10.6272 3.88332 10.2405 4.27003 10.2405 4.76222C10.2405 5.26613 10.6272 5.65285 11.1311 5.65285ZM11.1311 11.7935H29.9631C30.4553 11.7935 30.8538 11.4067 30.8538 10.9029C30.8538 10.4107 30.4553 10.0239 29.9631 10.0239H11.1311C10.6272 10.0239 10.2405 10.4107 10.2405 10.9029C10.2405 11.4067 10.6272 11.7935 11.1311 11.7935ZM11.1311 17.9341H29.9631C30.4553 17.9341 30.8538 17.5357 30.8538 17.0435C30.8538 16.5513 30.4553 16.1646 29.9631 16.1646H11.1311C10.6272 16.1646 10.2405 16.5513 10.2405 17.0435C10.2405 17.5357 10.6272 17.9341 11.1311 17.9341ZM11.1311 24.063H22.4514C22.9436 24.063 23.342 23.6763 23.342 23.1841C23.342 22.6919 22.9436 22.2935 22.4514 22.2935H11.1311C10.6272 22.2935 10.2405 22.6919 10.2405 23.1841C10.2405 23.6763 10.6272 24.063 11.1311 24.063ZM3.80689 24.6255L6.15064 21.4849C6.61939 20.8521 6.37329 20.0552 5.54126 20.0552H3.8772V7.87941H5.54126C6.34986 7.87941 6.64282 7.10597 6.15064 6.44972L3.80689 3.32082C3.49048 2.88722 2.88111 2.89894 2.57642 3.32082L0.232669 6.44972C-0.2478 7.10597 0.0451684 7.87941 0.842044 7.87941H2.51782V20.0552H0.842044C0.0451684 20.0552 -0.2478 20.8286 0.232669 21.4849L2.57642 24.6255C2.89282 25.0474 3.49048 25.0474 3.80689 24.6255Z" fill="black"/>
</svg>
